<svg width="31" height="24" viewBox="0 0 31 24" version="1.1" xmlns="http://www.w3.org/2000/svg" xmlns:xlink="http://www.w3.org/1999/xlink">
<title>Combined Shape</title>
<desc>Created using Figma</desc>
<g id="Canvas" transform="translate(-2765 -1863)">
<g id="Combined Shape">
<use xlink:href="#path0_fill" transform="translate(2765.19 1863.01)" fill="#FFFFFF"/>
</g>
</g>
<defs>
<path id="path0_fill" fill-rule="evenodd" d="M 30.0129 0.800049C 30.0129 0.358154 29.6545 0 29.2129 0L 29.1904 0L 0.822266 0L 0.800049 0C 0.358154 0 0 0.358154 0 0.800049L 0 0.821899L 0 23.1678L 0 23.1897C 0 23.6316 0.358154 23.9897 0.800049 23.9897L 0.822266 23.9897L 29.1902 23.9897L 29.2129 23.9897C 29.6545 23.9897 30.0129 23.6316 30.0129 23.1897L 30.0129 23.1678L 30.0129 0.821899L 30.0129 0.800049ZM 28.3679 2.44385C 28.3679 2.00208 28.0098 1.6438 27.5681 1.6438L 2.44458 1.6438C 2.00269 1.6438 1.64453 2.00208 1.64453 2.44385L 1.64453 21.5458C 1.64453 21.9877 2.00269 22.3458 2.44458 22.3458L 27.5681 22.3458C 28.0098 22.3458 28.3679 21.9877 28.3679 21.5458L 28.3679 2.44385ZM 18.1147 15.3752C 18.1147 16.5566 17.5022 17.5767 16.4956 18.054L 16.4956 20.6368L 15.1565 20.1383L 13.6912 20.6368L 13.6912 18.0159C 12.5671 17.4208 12.1394 16.3566 12.1394 15.3752C 12.1394 11.5109 18.1147 11.4299 18.1147 15.3752ZM 10.4011 16.6638L 4.25806 16.6638L 4.25806 17.6661L 10.4011 17.6661L 10.4011 16.6638ZM 19.9104 16.6638L 26.0535 16.6638L 26.0535 17.6661L 19.9104 17.6661L 19.9104 16.6638ZM 20.0105 4.01184L 10.1475 4.01184L 10.1475 5.01416L 20.0105 5.01416L 20.0105 4.01184ZM 7.92383 9.51892L 22.2344 9.51892L 22.2344 10.5212L 7.92383 10.5212L 7.92383 9.51892ZM 22.2344 7.15076L 7.92383 7.15076L 7.92383 8.15283L 22.2344 8.15283L 22.2344 7.15076Z"/>
</defs>
</svg>
