<svg width="28" height="27" viewBox="0 0 28 27" version="1.1" xmlns="http://www.w3.org/2000/svg" xmlns:xlink="http://www.w3.org/1999/xlink">
<title>Shape</title>
<desc>Created using Figma</desc>
<g id="Canvas" transform="translate(-2766 -1640)">
<g id="Shape">
<use xlink:href="#path0_fill" transform="translate(2766.4 1640.8)" fill="#FFFFFF"/>
</g>
</g>
<defs>
<path id="path0_fill" fill-rule="evenodd" d="M 11.2254 2.72982C 11.0966 6.12228 10.6942 8.10946 8.71902 11.0431C 8.38294 10.7169 7.92888 10.5114 7.43199 10.5114L 1.858 10.5114C 0.844738 10.5114 0 11.3553 0 12.3674L 0 23.5033C 0 24.5155 0.844738 25.3593 1.858 25.3593L 7.43199 25.3593C 7.95322 25.3593 8.42744 25.134 8.76742 24.7793C 9.00964 24.971 9.23536 25.1472 9.49319 25.3013C 10.0412 25.6288 10.6801 25.8259 11.4964 25.9103C 13.1288 26.0792 15.7001 25.953 21.6766 25.978C 21.89 25.9777 22.1025 25.9011 22.2669 25.7653C 23.4494 24.8018 24.0303 23.8106 24.2991 22.759C 24.4024 22.7029 24.4949 22.627 24.5701 22.5367C 25.4668 21.4172 25.8284 20.125 25.6732 18.96C 25.7229 18.9198 25.7684 18.8743 25.8088 18.8247C 26.8487 17.5264 27.1783 15.9903 26.8055 14.6971C 27.4153 13.9064 27.6787 12.9782 27.5796 12.1161C 27.4581 11.0588 26.7809 10.1062 25.7604 9.66078C 25.6447 9.61042 25.5188 9.58395 25.3926 9.58345L 17.7671 9.58345C 18.1751 6.53963 17.8637 3.74904 16.7897 1.85986C 16.1812 0.789514 15.2525 0.161974 14.3221 0.0232085C 12.6509 -0.181723 11.3856 0.991012 11.2254 2.72982ZM 15.1737 2.77816C 16.0198 4.26654 16.4156 7.1942 15.8124 10.3374C 15.7105 10.8711 16.1782 11.4377 16.722 11.4394L 25.1217 11.4394C 25.4688 11.6332 25.6855 11.9301 25.7314 12.3287C 25.7743 12.7024 25.6127 13.153 25.2378 13.6047L 21.9864 13.6047C 21.4955 13.6047 21.0441 14.0424 21.0441 14.5327C 21.0441 15.0231 21.4956 15.4677 21.9864 15.4607L 25.0637 15.4607C 25.1343 15.9858 25.0044 16.6463 24.5798 17.3167L 21.9864 17.3167C 21.4955 17.3167 21.0441 17.7544 21.0441 18.2447C 21.0441 18.735 21.4956 19.1796 21.9864 19.1727L 23.825 19.1727C 23.8956 19.6978 23.7658 20.3583 23.3411 21.0287L 21.9864 21.0287C 21.4955 21.0287 21.0441 21.4664 21.0441 21.9567C 21.0441 22.447 21.4956 22.8916 21.9864 22.8847L 22.3057 22.8847C 22.1154 23.294 21.8133 23.6564 21.2799 24.122C 15.6414 24.1047 12.954 24.1958 11.6803 24.064C 11.0241 23.9961 10.7652 23.8998 10.4416 23.7063C 10.1722 23.5453 9.80034 23.2375 9.29004 22.8267L 9.29004 13.4211C 12.1961 9.5402 12.9291 6.82582 13.0834 2.81683C 13.3738 1.21886 14.7603 1.88169 15.1737 2.77816ZM 1.85791 12.3674L 7.4319 12.3674C 7.41084 16.0543 7.4319 19.7875 7.4319 23.5033L 1.85791 23.5033L 1.85791 12.3674Z"/>
</defs>
</svg>
