<svg width="30" height="30" viewBox="0 0 30 30" version="1.1" xmlns="http://www.w3.org/2000/svg" xmlns:xlink="http://www.w3.org/1999/xlink">
<title>Shape</title>
<desc>Created using Figma</desc>
<g id="Canvas" transform="translate(-2465 -1859)">
<g id="Shape">
<use xlink:href="#path0_fill" transform="translate(2465 1859)" fill="#FFFFFF"/>
</g>
</g>
<defs>
<path id="path0_fill" fill-rule="evenodd" d="M 22.2 11.2586C 22.8333 11.4924 23.5 11.626 24.2 11.626C 27.4 11.5926 30 8.98686 30 5.77977C 30 4.91118 29.8333 4.10941 29.4667 3.34104C 29.3667 3.1406 29.2 3.00697 29 2.97356C 28.8 2.94015 28.5667 3.00697 28.4333 3.1406L 24.6333 6.98243L 22.9667 5.31207L 26.7667 1.53705C 26.9333 1.37001 27 1.16957 26.9333 0.969127C 26.9 0.768684 26.7667 0.56824 26.5667 0.501426C 25.8333 0.167354 25.0333 0.000317676 24.1667 0.000317676C 21 -0.0330895 18.4 2.57267 18.4 5.77977C 18.4 6.44791 18.5 7.08265 18.7667 7.71739L 7.8 18.7084C 7.2 18.5079 6.53333 18.3743 5.83333 18.3743C 2.6 18.4077 0 21.0135 0 24.2206C 0 25.0891 0.166667 25.8909 0.533333 26.6593C 0.633333 26.8597 0.8 26.9934 1 27.0268C 1.2 27.0602 1.43333 26.9934 1.56667 26.8597L 5.36667 23.0179L 7.03333 24.6883L 3.23333 28.4633C 3.1 28.5969 3.03333 28.8307 3.06667 29.0312C 3.1 29.2316 3.23333 29.4321 3.43333 29.4989C 4.16667 29.833 4.96667 30 5.83333 30C 9.03333 30 11.6333 27.3942 11.6333 24.1871C 11.6333 23.4856 11.5 22.8174 11.2667 22.1827L 22.2 11.2586ZM 5.80005 28.7305C 5.46672 28.7305 5.16672 28.6971 4.86672 28.6303L 8.40005 25.0891C 8.53338 24.9555 8.60005 24.7885 8.60005 24.6214C 8.60005 24.4544 8.53338 24.2873 8.40005 24.1537L 5.83338 21.5814C 5.56672 21.3141 5.16672 21.3141 4.93338 21.5814L 1.40005 25.1893C 1.33338 24.8887 1.30005 24.5546 1.30005 24.2205C 1.30005 21.715 3.33338 19.7106 5.80005 19.7106C 6.50005 19.7106 7.10005 19.8442 7.66672 20.078C 7.90005 20.1783 8.20005 20.1449 8.40005 19.9444L 19.9667 8.35211C 20.1667 8.15166 20.2 7.8844 20.1 7.61715C 19.8 6.98241 19.6667 6.41449 19.6667 5.77975C 19.6667 3.27421 21.7 1.26978 24.1667 1.26978C 24.5 1.26978 24.8 1.30318 25.1 1.37L 21.6 4.87776C 21.3334 5.14501 21.3334 5.5459 21.6 5.77975L 24.1667 8.35211C 24.3 8.48573 24.4667 8.55255 24.6334 8.55255C 24.8 8.55255 24.9667 8.48573 25.1 8.35211L 28.6334 4.81094C 28.7001 5.11161 28.7334 5.44568 28.7334 5.77975C 28.7334 8.28529 26.7 10.2897 24.2334 10.2897C 23.5667 10.2897 22.9334 10.1561 22.3667 9.88884C 22.1334 9.78862 21.8334 9.82202 21.6334 10.0225L 10.0334 21.6148C 9.83338 21.8152 9.80005 22.0825 9.90005 22.3497C 10.1667 22.9511 10.3 23.5524 10.3 24.2205C 10.3334 26.7261 8.30005 28.7305 5.80005 28.7305ZM 29.5333 25.5902C 29.6666 25.7238 29.7333 25.8909 29.7333 26.0579C 29.7333 26.2249 29.6666 26.392 29.5333 26.5256L 26.8333 29.2316C 26.6999 29.3652 26.5333 29.432 26.3666 29.432C 26.1999 29.432 26.0333 29.3652 25.8999 29.2316L 25.8666 29.1982L 16.5333 19.8107C 16.2666 19.5435 16.2666 19.1426 16.5333 18.9087C 16.7999 18.6415 17.1999 18.6415 17.4333 18.9087L 26.3666 27.8619L 28.1666 26.0579L 19.2333 17.1048C 18.9666 16.8375 18.9666 16.4366 19.2333 16.2028C 19.4999 15.9355 19.8999 15.9355 20.1333 16.2028L 29.5333 25.5902ZM 3.73337 6.08039C 3.8667 6.21402 4.03337 6.28083 4.20003 6.28083C 4.3667 6.28083 4.53337 6.21402 4.6667 6.08039L 5.10003 5.64609L 11.5667 12.1271C 11.7 12.2607 11.8667 12.3275 12.0334 12.3275C 12.2 12.3275 12.3667 12.2607 12.5 12.1271C 12.7667 11.8598 12.7667 11.459 12.5 11.2251L 6.00003 4.71069L 6.3667 4.34321C 6.50003 4.20958 6.5667 4.04255 6.5667 3.87551C 6.5667 3.70848 6.50003 3.54144 6.3667 3.40781L 3.70003 0.735233C 3.43337 0.467976 3.03337 0.467976 2.80003 0.735233L 1.0667 2.47241C 0.800033 2.73967 0.800033 3.14055 1.0667 3.3744L 3.73337 6.08039ZM 3.23335 2.13843L 5.00002 3.90901L 4.63335 4.27649L 4.20002 4.71078L 2.43335 2.9402L 3.23335 2.13843Z"/>
</defs>
</svg>
