<svg width="27" height="27" viewBox="0 0 27 27" version="1.1" xmlns="http://www.w3.org/2000/svg" xmlns:xlink="http://www.w3.org/1999/xlink">
<title>Shape</title>
<desc>Created using Figma</desc>
<g id="Canvas" transform="translate(-2918 -4340)">
<g id="Shape">
<use xlink:href="#path0_fill" transform="translate(2918.43 4340.43)" fill="#FFFFFF"/>
</g>
</g>
<defs>
<path id="path0_fill" fill-rule="evenodd" d="M 13.0679 0C 9.51917 0 9.07381 0.0155168 7.68001 0.0789453C 6.28894 0.142646 5.33942 0.362876 4.50859 0.686007C 3.64918 1.01976 2.92016 1.4662 2.19386 2.19277C 1.46702 2.91907 1.02057 3.64809 0.685735 4.50723C 0.361787 5.33833 0.141285 6.28813 0.078673 7.67865C 0.0163335 9.07244 0 9.51808 0 13.0668C 0 16.6155 0.0157891 17.0595 0.0789453 18.4533C 0.142918 19.8444 0.363148 20.7939 0.686007 21.6247C 1.02003 22.4842 1.46648 23.2132 2.19305 23.9395C 2.91907 24.6663 3.64809 25.1138 4.50696 25.4476C 5.33833 25.7707 6.28813 25.991 7.67892 26.0547C 9.07272 26.1181 9.51781 26.1336 13.0663 26.1336C 16.6153 26.1336 17.0593 26.1181 18.453 26.0547C 19.8441 25.991 20.7947 25.7707 21.6261 25.4476C 22.4852 25.1138 23.2132 24.6663 23.9392 23.9395C 24.666 23.2132 25.1125 22.4842 25.4473 21.625C 25.7686 20.7939 25.9891 19.8441 26.0544 18.4536C 26.117 17.0598 26.1333 16.6155 26.1333 13.0668C 26.1333 9.51808 26.117 9.07272 26.0544 7.67892C 25.9891 6.28785 25.7686 5.33833 25.4473 4.5075C 25.1125 3.64809 24.666 2.91907 23.9392 2.19277C 23.2124 1.46593 22.4855 1.01948 21.6253 0.686007C 20.7923 0.362876 19.8422 0.142646 18.4511 0.0789453C 17.0573 0.0155168 16.6136 0 13.0638 0L 13.0679 0ZM 11.8958 2.35483C 12.2437 2.35428 12.6319 2.35483 13.068 2.35483C 16.5569 2.35483 16.9704 2.36735 18.3481 2.42996C 19.6221 2.48822 20.3136 2.7011 20.7742 2.87995C 21.3839 3.11679 21.8187 3.3999 22.2758 3.85724C 22.7331 4.31458 23.0162 4.75014 23.2536 5.35992C 23.4324 5.81998 23.6456 6.51143 23.7036 7.78545C 23.7662 9.16291 23.7798 9.57669 23.7798 13.0639C 23.7798 16.5511 23.7662 16.9649 23.7036 18.3423C 23.6453 19.6163 23.4324 20.3078 23.2536 20.7679C 23.0168 21.3776 22.7331 21.8118 22.2758 22.2689C 21.8184 22.7262 21.3842 23.0094 20.7742 23.2462C 20.3141 23.4259 19.6221 23.6382 18.3481 23.6965C 16.9706 23.7591 16.5569 23.7727 13.068 23.7727C 9.57891 23.7727 9.16539 23.7591 7.78794 23.6965C 6.51392 23.6377 5.82247 23.4248 5.36159 23.2459C 4.75181 23.0091 4.31625 22.726 3.85891 22.2686C 3.40157 21.8113 3.11846 21.3768 2.88108 20.7668C 2.70223 20.3067 2.48908 19.6153 2.43109 18.3412C 2.36848 16.9638 2.35596 16.55 2.35596 13.0606C 2.35596 9.57124 2.36848 9.15964 2.43109 7.78218C 2.48935 6.50817 2.70223 5.81672 2.88108 5.35611C 3.11791 4.74633 3.40157 4.31077 3.85891 3.85343C 4.31625 3.39609 4.75181 3.11298 5.36159 2.8756C 5.8222 2.69593 6.51392 2.48359 7.78794 2.42506C 8.99335 2.37062 9.46049 2.35428 11.8958 2.35156L 11.8958 2.35483ZM 20.0429 4.52447C 19.1772 4.52447 18.4749 5.22599 18.4749 6.09194C 18.4749 6.95762 19.1772 7.65996 20.0429 7.65996C 20.9085 7.65996 21.6109 6.95762 21.6109 6.09194C 21.6109 5.22627 20.9085 4.52393 20.0429 4.52393L 20.0429 4.52447ZM 13.068 6.35645C 9.36221 6.35645 6.35767 9.36099 6.35767 13.0668C 6.35767 16.7726 9.36221 19.7758 13.068 19.7758C 16.7738 19.7758 19.7773 16.7726 19.7773 13.0668C 19.7773 9.36099 16.7735 6.35645 13.0677 6.35645L 13.068 6.35645ZM 13.068 8.71143C 15.4734 8.71143 17.4236 10.6614 17.4236 13.067C 17.4236 15.4724 15.4734 17.4226 13.068 17.4226C 10.6624 17.4226 8.7124 15.4724 8.7124 13.067C 8.7124 10.6614 10.6624 8.71143 13.068 8.71143Z"/>
</defs>
</svg>
