<svg width="23" height="28" viewBox="0 0 23 28" version="1.1" xmlns="http://www.w3.org/2000/svg" xmlns:xlink="http://www.w3.org/1999/xlink">
<title>Fill 1894</title>
<desc>Created using Figma</desc>
<g id="Canvas" transform="translate(-2989 -4341)">
<g id="Fill 1894">
<use xlink:href="#path0_fill" transform="translate(2989 4341)" fill="#FFFFFF"/>
</g>
</g>
<defs>
<path id="path0_fill" fill-rule="evenodd" d="M 4.93587 27.4235C 4.93587 27.4235 4.63789 23.9008 4.99972 22.3804C 5.32538 21.0095 7.11114 13.6463 7.11114 13.6463C 7.11114 13.6463 6.57264 12.5933 6.57264 11.0375C 6.57264 8.59283 8.02212 6.76916 9.8313 6.76916C 11.3659 6.76916 12.1087 7.89494 12.1087 9.24503C 12.1087 10.753 11.1254 13.0066 10.6167 15.0961C 10.1931 16.8471 11.517 18.272 13.2836 18.272C 16.4848 18.272 18.9453 14.9777 18.9453 10.2233C 18.9453 6.01519 15.8484 3.07406 11.4234 3.07406C 6.3002 3.07406 3.29271 6.82524 3.29271 10.7011C 3.29271 12.2111 3.88654 13.8312 4.6315 14.7119C 4.77836 14.8863 4.79965 15.038 4.75708 15.2166C 4.62086 15.7712 4.31649 16.9655 4.25689 17.2085C 4.17814 17.5305 3.9951 17.599 3.65242 17.4453C 1.40478 16.4234 0 13.2122 0 10.6367C 0 5.09297 4.12706 0 11.898 0C 18.145 0 23 4.34523 23 10.1506C 23 16.2074 19.0858 21.0822 13.6561 21.0822C 11.8299 21.0822 10.1144 20.1559 9.52693 19.0633C 9.52693 19.0633 8.62447 22.4178 8.40524 23.2403C 7.9987 24.767 6.90043 26.6799 6.16824 27.8472C 7.85184 28.3582 4.93587 27.4235 4.93587 27.4235Z"/>
</defs>
</svg>
