<svg width="24" height="21" viewBox="0 0 24 21" version="1.1" xmlns="http://www.w3.org/2000/svg" xmlns:xlink="http://www.w3.org/1999/xlink">
<title>Shape</title>
<desc>Created using Figma</desc>
<g id="Canvas" transform="translate(-2850 -4343)">
<g id="Shape">
<use xlink:href="#path0_fill" transform="translate(2850.25 4343.7)" fill="#FFFFFF"/>
</g>
</g>
<defs>
<path id="path0_fill" fill-rule="evenodd" d="M 11.5162 5.21391L 11.5676 6.06166L 10.7108 5.95786C 7.5918 5.55993 4.86698 4.21044 2.55345 1.94399L 1.42239 0.81942L 1.13106 1.64987C 0.514117 3.5011 0.908274 5.45612 2.19357 6.77101C 2.87906 7.49766 2.72482 7.60146 1.54235 7.16893C 1.13106 7.03053 0.771176 6.92672 0.736901 6.97862C 0.616941 7.09973 1.02823 8.67413 1.35384 9.29697C 1.79941 10.162 2.70768 11.0098 3.70164 11.5115L 4.54137 11.9094L 3.54741 11.9267C 2.58772 11.9267 2.55345 11.944 2.65627 12.3074C 2.99902 13.4319 4.35286 14.6257 5.86094 15.1448L 6.92345 15.5081L 5.99804 16.0617C 4.62706 16.8576 3.01615 17.3074 1.40525 17.342C 0.634078 17.3593 0 17.4285 0 17.4804C 0 17.6534 2.09074 18.6223 3.30749 19.0029C 6.95772 20.1275 11.2934 19.643 14.5495 17.7226C 16.863 16.3558 19.1766 13.6396 20.2562 11.0098C 20.8389 9.60839 21.4216 7.04783 21.4216 5.81945C 21.4216 5.02359 21.473 4.91979 22.4327 3.96823C 22.9982 3.41459 23.5294 2.80905 23.6323 2.63604C 23.8036 2.30732 23.7865 2.30732 22.9125 2.60144C 21.4558 3.12047 21.2502 3.05127 21.9699 2.27272C 22.5012 1.71908 23.1353 0.715614 23.1353 0.421494C 23.1353 0.369591 22.8782 0.456097 22.5869 0.611807C 22.2784 0.784818 21.5929 1.04434 21.0788 1.20005L 20.1534 1.49416L 19.3137 0.923227C 18.851 0.611807 18.1998 0.265784 17.857 0.161978C 16.983 -0.0802383 15.6463 -0.045636 14.858 0.231182C 12.7158 1.00973 11.362 3.01666 11.5162 5.21391Z"/>
</defs>
</svg>
