<svg width="27" height="15" viewBox="0 0 27 15" version="1.1" xmlns="http://www.w3.org/2000/svg" xmlns:xlink="http://www.w3.org/1999/xlink">
<title>Shape</title>
<desc>Created using Figma</desc>
<g id="Canvas" transform="translate(-2641 -4346)">
<g id="Shape">
<use xlink:href="#path0_fill" transform="translate(2641.43 4346.15)" fill="#FFFFFF"/>
</g>
</g>
<defs>
<path id="path0_fill" fill-rule="evenodd" d="M 14.3483 14.5735C 14.3483 14.5735 14.8199 14.5221 15.0615 14.2674C 15.2826 14.034 15.275 13.5936 15.275 13.5936C 15.275 13.5936 15.2456 11.5372 16.2183 11.2336C 17.1769 10.935 18.4078 13.2222 19.7141 14.1017C 20.7009 14.7667 21.4499 14.6212 21.4499 14.6212L 24.9406 14.5735C 24.9406 14.5735 26.7658 14.4631 25.9005 13.0541C 25.8289 12.9387 25.3956 12.0115 23.3058 10.1069C 21.1163 8.11326 21.4102 8.43571 24.0459 4.98665C 25.6513 2.88635 26.2929 1.60408 26.0922 1.0558C 25.9018 0.531351 24.7207 0.670618 24.7207 0.670618L 20.7916 0.694457C 20.7916 0.694457 20.5002 0.655562 20.2842 0.782283C 20.0733 0.906494 19.9365 1.19632 19.9365 1.19632C 19.9365 1.19632 19.3153 2.8211 18.4858 4.20374C 16.7359 7.11957 16.0368 7.27389 15.7505 7.09322C 15.0845 6.6704 15.2507 5.39692 15.2507 4.49231C 15.2507 1.66556 15.6878 0.487438 14.4007 0.182555C 13.9738 0.0809281 13.6593 0.0144311 12.5665 0.0031392C 11.1643 -0.0106621 9.97818 0.00815785 9.30586 0.330605C 8.85849 0.545152 8.51338 1.02443 8.72428 1.05203C 8.98375 1.08591 9.57172 1.20761 9.88359 1.62416C 10.2862 2.16241 10.2722 3.36939 10.2722 3.36939C 10.2722 3.36939 10.5035 6.69675 9.73149 7.10953C 9.20232 7.39308 8.47631 6.81468 6.91565 4.16861C 6.11679 2.81358 5.51349 1.31551 5.51349 1.31551C 5.51349 1.31551 5.39717 1.03572 5.18883 0.885165C 4.93703 0.703239 4.58553 0.646779 4.58553 0.646779L 0.851957 0.670618C 0.851957 0.670618 0.290835 0.685674 0.0850481 0.925314C -0.0977319 1.13735 0.0709881 1.57774 0.0709881 1.57774C 0.0709881 1.57774 2.99419 8.29142 6.30468 11.6752C 9.34037 14.7768 12.7863 14.5735 12.7863 14.5735L 14.3483 14.5735Z"/>
</defs>
</svg>
