<svg width="27" height="20" viewBox="0 0 27 20" version="1.1" xmlns="http://www.w3.org/2000/svg" xmlns:xlink="http://www.w3.org/1999/xlink">
<title>Canvas</title>
<desc>Created using Figma</desc>
<g id="Canvas" transform="translate(-2779 -4344)">
<g id="Youtube">
<use xlink:href="#path0_fill" transform="translate(2779.48 4344.52)" fill="#FFFFFF"/>
</g>
<g id="Path">
<use xlink:href="#path1_fill" transform="translate(2789.88 4349.87)" fill="#333333"/>
</g>
</g>
<defs>
<path id="path0_fill" fill-rule="evenodd" d="M 25.9672 4.05177C 25.9672 4.05177 25.7107 2.21157 24.9246 1.40122C 23.927 0.33716 22.809 0.332153 22.2967 0.270396C 18.6262 0 13.1205 0 13.1205 0L 13.109 0C 13.109 0 7.60328 0 3.93279 0.270396C 3.41967 0.332153 2.30246 0.33716 1.3041 1.40122C 0.518033 2.21157 0.262295 4.05177 0.262295 4.05177C 0.262295 4.05177 0 6.21326 0 8.37393L 0 10.4002C 0 12.5617 0.262295 14.7224 0.262295 14.7224C 0.262295 14.7224 0.518033 16.5626 1.3041 17.3729C 2.30246 18.437 3.61311 18.4036 4.19672 18.5146C 6.29508 18.7199 13.1148 18.7833 13.1148 18.7833C 13.1148 18.7833 18.6262 18.775 22.2967 18.5046C 22.809 18.442 23.927 18.437 24.9246 17.3729C 25.7107 16.5626 25.9672 14.7224 25.9672 14.7224C 25.9672 14.7224 26.2295 12.5617 26.2295 10.4002L 26.2295 8.37393C 26.2295 6.21326 25.9672 4.05177 25.9672 4.05177Z"/>
<path id="path1_fill" fill-rule="evenodd" d="M 0.000819672 7.50349L 0 0L 7.08689 3.76468L 0.000819672 7.50349Z"/>
</defs>
</svg>
